<svg xmlns="http://www.w3.org/2000/svg" width="1120" height="180" viewBox="0 0 1120 180" role="img" aria-labelledby="title desc">
<title id="title">LIBRARY SYSTEMS</title><desc id="desc">Koha configuration and OPAC customisation</desc>
<defs><linearGradient id="bg" x1="0" y1="0" x2="1" y2="1"><stop stop-color="#0b0f17"/><stop offset="1" stop-color="#151c2b"/></linearGradient><linearGradient id="accent"><stop stop-color="#22d3ee"/><stop offset="1" stop-color="#a78bfa"/></linearGradient></defs>
<rect width="1120" height="180" rx="20" fill="url(#bg)"/>
<rect x="1" y="1" width="1118" height="178" rx="19" fill="none" stroke="#2d3a4f"/>
<rect x="36" y="30" width="50" height="4" rx="2" fill="url(#accent)"/>
<g font-family="DejaVu Sans, Arial, sans-serif">
<text x="36" y="86" fill="#e5e7eb" font-size="34" font-weight="700">LIBRARY SYSTEMS</text>
<text x="36" y="124" fill="#94a3b8" font-size="23">Koha configuration and OPAC customisation</text>
<text x="36" y="155" fill="#22d3ee" font-size="14" letter-spacing="2">PROJECT PORTFOLIO</text></g><g transform="translate(1010 91)" fill="none" stroke-width="1.5">
<circle r="63" stroke="#2d3a4f"/><circle r="37" stroke="#2d3a4f"/>
<path d="M-58,-25 L0,-42 L48,-13 L42,47 L-27,51 L-58,-25 M0,-42 L0,0 L42,47 M-58,-25 L0,0 L48,-13 M-27,51 L0,0" stroke="#22d3ee" opacity="0.55"/>
<circle r="7" fill="#22d3ee" stroke="none"/><circle cx="0" cy="-42" r="5" fill="#a78bfa" stroke="none"/><circle cx="48" cy="-13" r="5" fill="#22d3ee" stroke="none"/><circle cx="42" cy="47" r="5" fill="#a78bfa" stroke="none"/><circle cx="-27" cy="51" r="5" fill="#22d3ee" stroke="none"/><circle cx="-58" cy="-25" r="5" fill="#a78bfa" stroke="none"/>
</g></svg>
